<svg xmlns="http://www.w3.org/2000/svg" viewBox="0 0 158.14 37.79"><defs><style>.cls-1{fill:#fff;}</style></defs><title>protecfire-logo-original-white</title><g id="Camada_2" data-name="Camada 2"><g id="Camada_1-2" data-name="Camada 1"><path class="cls-1" d="M0,26.93V10.73H4.21v1.74A5.73,5.73,0,0,1,5.81,11,4.68,4.68,0,0,1,8,10.46a4.22,4.22,0,0,1,3.64,1.81,7.43,7.43,0,0,1,1.29,4.45,6.41,6.41,0,0,1-1.41,4.47A4.56,4.56,0,0,1,8,22.73a5,5,0,0,1-1.9-.35,4.65,4.65,0,0,1-1.53-1.05v5.6Zm4.51-10.3a3.1,3.1,0,0,0,.58,2.07,1.88,1.88,0,0,0,1.48.67,1.63,1.63,0,0,0,1.32-.64,3.57,3.57,0,0,0,.53-2.2,3.23,3.23,0,0,0-.55-2.09,1.68,1.68,0,0,0-1.35-.67,1.81,1.81,0,0,0-1.44.67,3.38,3.38,0,0,0-.57,2.19"></path><path class="cls-1" d="M23.12,16.63a5.85,5.85,0,0,1,1.81-4.42,6.73,6.73,0,0,1,4.89-1.75,6.73,6.73,0,0,1,5.33,2,5.91,5.91,0,0,1,1.45,4.06A5.87,5.87,0,0,1,34.8,21a6.85,6.85,0,0,1-5,1.73,7,7,0,0,1-4.58-1.44,5.75,5.75,0,0,1-2.14-4.66m4.51,0a3.55,3.55,0,0,0,.63,2.32,2,2,0,0,0,1.6.75,2,2,0,0,0,1.6-.74,3.68,3.68,0,0,0,.62-2.37,3.44,3.44,0,0,0-.63-2.27,2,2,0,0,0-1.56-.75,2,2,0,0,0-1.62.76,3.47,3.47,0,0,0-.64,2.3"></path><path class="cls-1" d="M86.16,6.26h4.5V9.33h-4.5Zm0,4.47h4.5V22.46h-4.5Z"></path><path class="cls-1" d="M82.25,9.7a1.12,1.12,0,0,1,.38-.64,1.43,1.43,0,0,1,.87-.21A8.17,8.17,0,0,1,84.8,9V6.21A26.35,26.35,0,0,0,81.87,6a5.71,5.71,0,0,0-2.25.34,3.08,3.08,0,0,0-1.2.88,3.3,3.3,0,0,0-.58,1.41,9.22,9.22,0,0,0-.15,1.58v.53H76V14h1.68v8.45H82.2V14h2.14V10.73H82.2a7,7,0,0,1,0-1"></path><path class="cls-1" d="M70.85,17.87a2.68,2.68,0,0,1-.9,1.39,2.42,2.42,0,0,1-1.49.45A2.23,2.23,0,0,1,66.72,19,3.13,3.13,0,0,1,66,16.77a3.62,3.62,0,0,1,.69-2.42,2.25,2.25,0,0,1,1.81-.8,2.31,2.31,0,0,1,1.41.38,1.93,1.93,0,0,1,.72,1.13H75a3.5,3.5,0,0,0-.12-.56,5.43,5.43,0,0,0-2.11-3,7.84,7.84,0,0,0-4.39-1A8.76,8.76,0,0,0,65,11a5.44,5.44,0,0,0-1.61,1,5.66,5.66,0,0,0-1.24,1.58,6.63,6.63,0,0,0-.62,3,6.42,6.42,0,0,0,.51,2.78,5.69,5.69,0,0,0,1.41,1.83,5.37,5.37,0,0,0,2.13,1.12,11.88,11.88,0,0,0,3.12.35,8,8,0,0,0,3.18-.54A5.42,5.42,0,0,0,74,20.67a6.14,6.14,0,0,0,1.16-2.31c0-.12.08-.49.08-.49Z"></path><path class="cls-1" d="M141.84,31.54l-2.59-3.81-2.6,3.81L128,18.9l8.62-12.65,2.6,3.81,2.59-3.81,8.62,12.65ZM130.09,18.9l6.56,9.61,1.56-2.29-5-7.32,5-7.32-1.56-2.3Zm10.19,7.32,1.56,2.29,6.56-9.61-6.56-9.62-1.56,2.3,5,7.32Zm-5-7.32,4,5.8,4-5.8-4-5.81Z"></path><path class="cls-1" d="M139.25,37.79A18.9,18.9,0,1,1,158.14,18.9a18.91,18.91,0,0,1-18.89,18.89m0-34.44A15.55,15.55,0,1,0,154.79,18.9,15.57,15.57,0,0,0,139.25,3.35"></path><path class="cls-1" d="M22.57,10.68a3.94,3.94,0,0,0-1.22-.22,2.7,2.7,0,0,0-1.6.47,4.74,4.74,0,0,0-1.25,1.72V10.73H14.29V22.47h4.52V18.53a7.3,7.3,0,0,1,.7-3.84A1.52,1.52,0,0,1,20.87,14H21a3.58,3.58,0,0,1,1.57.64Z"></path><path class="cls-1" d="M100.86,10.65a3.87,3.87,0,0,0-1.12-.19,2.66,2.66,0,0,0-1.6.47,4.74,4.74,0,0,0-1.26,1.72V10.73H92.67V22.47h4.52V18.53a7.4,7.4,0,0,1,.7-3.84A1.55,1.55,0,0,1,99.2,14a3.53,3.53,0,0,1,1.66.64Z"></path><path class="cls-1" d="M45.6,19.26a5.08,5.08,0,0,1-1.4.29.82.82,0,0,1-.77-.38,2.17,2.17,0,0,1-.14-1V14h2.47V10.73H43.29V6.27H38.75v4.47H37.12V14h1.66v4.13A7.54,7.54,0,0,0,39.16,21a2.57,2.57,0,0,0,1.18,1.31,5.35,5.35,0,0,0,2.47.43,14.88,14.88,0,0,0,3.12-.36Z"></path><path class="cls-1" d="M60.48,17.21a8,8,0,0,0-.76-3.77,5.15,5.15,0,0,0-2.22-2.21,8.63,8.63,0,0,0-4-.77,6.71,6.71,0,0,0-4.87,1.71,5.92,5.92,0,0,0-1.76,4.45A6.24,6.24,0,0,0,47.77,20,5.26,5.26,0,0,0,50,22.07a8.42,8.42,0,0,0,3.67.66A8.85,8.85,0,0,0,57.78,22a6.36,6.36,0,0,0,2.45-2.53l.2-.41H55.8a3.08,3.08,0,0,1-.79.74,2.58,2.58,0,0,1-1.26.33,2.11,2.11,0,0,1-1.7-.76,3,3,0,0,1-.59-1.62h9Zm-9-1.65A3.1,3.1,0,0,1,52,14a2,2,0,0,1,1.72-.85,2.06,2.06,0,0,1,1.5.56,3.09,3.09,0,0,1,.7,1.87Z"></path><path class="cls-1" d="M115.16,17.21a8,8,0,0,0-.76-3.77,5.15,5.15,0,0,0-2.22-2.21,8.63,8.63,0,0,0-4-.77,6.71,6.71,0,0,0-4.87,1.71,5.92,5.92,0,0,0-1.76,4.45,6.24,6.24,0,0,0,.88,3.36,5.26,5.26,0,0,0,2.21,2.09,8.42,8.42,0,0,0,3.67.66,8.78,8.78,0,0,0,4.12-.77,6.32,6.32,0,0,0,2.46-2.53l.2-.41h-4.63a3.08,3.08,0,0,1-.79.74,2.58,2.58,0,0,1-1.26.33,2.11,2.11,0,0,1-1.7-.76,3,3,0,0,1-.59-1.62h9Zm-9-1.65a3.1,3.1,0,0,1,.51-1.58,2.21,2.21,0,0,1,3.21-.29,3,3,0,0,1,.71,1.87Z"></path><path class="cls-1" d="M67.57,31h-1c0-.11-.09-1-.23-2.65a5.24,5.24,0,0,1,0-.57h0a5.26,5.26,0,0,1-.14.57L65.36,31h-.55c0-.12-.3-1-.77-2.65-.06-.19-.1-.38-.14-.57h0a3.62,3.62,0,0,1,0,.57L63.64,31h-.9l.49-4.61h1.06L65,29a4.7,4.7,0,0,1,.12.51h0a4.94,4.94,0,0,1,.12-.51L66,26.4h1Z"></path><path class="cls-1" d="M71.11,30.81a3.13,3.13,0,0,1-1.41.26c-1,0-1.58-.38-1.58-1.13a1,1,0,0,1,.6-1,3.92,3.92,0,0,1,1.42-.34v-.17c0-.32-.22-.48-.64-.48a2.22,2.22,0,0,0-.94.22l-.22-.59a3.3,3.3,0,0,1,1.35-.28c1,0,1.42.44,1.42,1.32Zm-1-.39V29.11a1.91,1.91,0,0,0-.76.2.64.64,0,0,0-.28.58c0,.41.22.61.65.61A.87.87,0,0,0,70.14,30.42Z"></path><path class="cls-1" d="M74.93,30.81a3.05,3.05,0,0,1-1.38.26,1.77,1.77,0,0,1-1.3-.47,1.85,1.85,0,0,1-.47-1.37,2,2,0,0,1,.44-1.36,1.43,1.43,0,0,1,1.14-.51,2.15,2.15,0,0,1,.53.06V25.74h1Zm-1-.45V28a.82.82,0,0,0-.28,0c-.53,0-.8.41-.8,1.23s.26,1.23.76,1.23A.78.78,0,0,0,73.89,30.36Z"></path><path class="cls-1" d="M78.74,29.26l-2.16.31a.8.8,0,0,0,.87.79,1.88,1.88,0,0,0,.93-.2l.24.65a2.8,2.8,0,0,1-1.29.26,1.69,1.69,0,0,1-1.29-.5,2,2,0,0,1-.45-1.38A2.07,2.07,0,0,1,76,27.83a1.52,1.52,0,0,1,1.2-.5,1.4,1.4,0,0,1,1.17.5A2.19,2.19,0,0,1,78.74,29.26Zm-1-.39c0-.62-.2-.92-.6-.92a.56.56,0,0,0-.5.27,1.47,1.47,0,0,0-.16.84Z"></path><path class="cls-1" d="M82.29,26.36a.44.44,0,0,1-.16.35.58.58,0,0,1-.39.14.61.61,0,0,1-.4-.14.48.48,0,0,1-.16-.35.44.44,0,0,1,.17-.34.58.58,0,0,1,.78,0A.43.43,0,0,1,82.29,26.36Zm0,4.65h-1V27.4h1Z"></path><path class="cls-1" d="M86.14,31h-1V28.48c0-.33-.18-.5-.54-.5a1.41,1.41,0,0,0-.45.07v3h-1V27.6a3.71,3.71,0,0,1,1.51-.27c1,0,1.56.38,1.56,1.15Z"></path><path class="cls-1" d="M92,30.81a2.67,2.67,0,0,1-1.29.26,1.92,1.92,0,0,1-1.57-.64,2.61,2.61,0,0,1-.52-1.75A2.44,2.44,0,0,1,89.2,27a2,2,0,0,1,1.55-.65A2.42,2.42,0,0,1,92,26.6l-.32.67a1.49,1.49,0,0,0-.77-.17c-.77,0-1.15.54-1.15,1.61a2.4,2.4,0,0,0,.24,1.2.77.77,0,0,0,.69.41.8.8,0,0,0,.34-.06V29h-.55V28.3H92Z"></path><path class="cls-1" d="M95.83,29.26l-2.16.31a.8.8,0,0,0,.87.79,1.92,1.92,0,0,0,.94-.2l.23.65a2.8,2.8,0,0,1-1.29.26,1.65,1.65,0,0,1-1.28-.5,2,2,0,0,1-.46-1.38,2,2,0,0,1,.43-1.36,1.48,1.48,0,0,1,1.19-.5,1.4,1.4,0,0,1,1.17.5A2.19,2.19,0,0,1,95.83,29.26Zm-1-.39c0-.62-.2-.92-.6-.92a.57.57,0,0,0-.5.27,1.47,1.47,0,0,0-.16.84Z"></path><path class="cls-1" d="M98.43,27.34l-.2.74a1.09,1.09,0,0,0-.39-.08.75.75,0,0,0-.31.06v3h-1V27.6A3.49,3.49,0,0,1,98,27.33Z"></path><path class="cls-1" d="M104,31h-1V28.48c0-.33-.17-.49-.53-.49a.61.61,0,0,0-.46.17V31h-1V28.46c0-.31-.19-.47-.57-.47a1.44,1.44,0,0,0-.43.06v3h-1V27.6a3.49,3.49,0,0,1,1.46-.27,1.59,1.59,0,0,1,1.14.36,1.78,1.78,0,0,1,1.19-.36,1.3,1.3,0,0,1,1,.34,1,1,0,0,1,.33.81Z"></path><path class="cls-1" d="M107.61,30.81a3.13,3.13,0,0,1-1.41.26c-1,0-1.58-.38-1.58-1.13a1,1,0,0,1,.6-1,3.92,3.92,0,0,1,1.42-.34v-.17c0-.32-.22-.48-.64-.48a2.22,2.22,0,0,0-.94.22l-.22-.59a3.3,3.3,0,0,1,1.35-.28c1,0,1.42.44,1.42,1.32Zm-1-.39V29.11a1.91,1.91,0,0,0-.76.2.64.64,0,0,0-.28.58c0,.41.22.61.65.61A.87.87,0,0,0,106.64,30.42Z"></path><path class="cls-1" d="M111.46,31h-1V28.48c0-.33-.18-.5-.54-.5a1.41,1.41,0,0,0-.45.07v3h-1V27.6a3.68,3.68,0,0,1,1.51-.27c1,0,1.55.38,1.55,1.15Z"></path><path class="cls-1" d="M115.21,27.4l-1.62,5.05h-1.1l.58-1.44L111.9,27.4H113l.5,2.09a2.78,2.78,0,0,1,.07.57h0c0-.15,0-.34.1-.57l.54-2.09Z"></path></g></g></svg>