<svg xmlns="http://www.w3.org/2000/svg" xmlns:xlink="http://www.w3.org/1999/xlink" viewBox="0 0 180 98"><defs><style>.a{fill:none;}.b{clip-path:url(#a);}.c{fill:#002d5d;fill-rule:evenodd;}</style><clipPath id="a"><rect class="a" width="179.46" height="98"/></clipPath></defs><title>Logo_PSI</title><g class="b"><path class="c" d="M54.72,51H28.8l.27,17.64L80,68.76a36.11,36.11,0,0,0,13.23-2.67,24.76,24.76,0,0,1,3.16-1.63H80a30.05,30.05,0,0,1-21.56-8.93A20.25,20.25,0,0,1,54.72,51M105,6.86l52.65-.22V24.88H115.81a17.1,17.1,0,0,1-.38-1.69c-.44-1.25-.87-2.45-1.25-3.48a38.62,38.62,0,0,0-8.12-12,8.64,8.64,0,0,1-1-.81m56.18,0a18,18,0,0,1,18,18L179.46,98H161.38ZM79.77,18.24,28.8,18C23,18,18.46,23,18.46,28.8v69H0V29A29.11,29.11,0,0,1,29,0H79.77a34.44,34.44,0,0,1,34.41,34.19,55.4,55.4,0,0,1-.66,6c0,.22,0,.44-.16.44H94.3a17.24,17.24,0,0,0,1.42-6.43,16.08,16.08,0,0,0-16-15.95m.21,3.1a14.34,14.34,0,0,1,5,1,9.62,9.62,0,0,1,3.55,2.28H79.55a9.53,9.53,0,0,0,0,19.06h52.21a27.16,27.16,0,0,1,27.17,27c0,14.81-13.18,27.22-27.93,27.22l-79.6-.11V80.41H132a9.64,9.64,0,1,0-.22-19.27l-52,.16A27.56,27.56,0,0,1,52.43,34a25.17,25.17,0,0,1,2.29-10.56,6.71,6.71,0,0,1,1-2.29Z"/></g></svg>